<svg width="25" height="25" viewBox="0 0 25 25" fill="none" xmlns="http://www.w3.org/2000/svg">
<circle cx="12.5" cy="12.5" r="12.5" fill="white"/>
<path d="M18.8086 9.78189C18.8184 9.91861 18.8184 10.0553 18.8184 10.1921C18.8184 14.362 15.6446 19.1667 9.84375 19.1667C8.05664 19.1667 6.39649 18.6491 5 17.7507C5.25392 17.78 5.49803 17.7897 5.76172 17.7897C7.2363 17.7897 8.59375 17.2917 9.67773 16.4421C8.29101 16.4128 7.1289 15.5046 6.7285 14.2546C6.92383 14.2838 7.11913 14.3034 7.32423 14.3034C7.60742 14.3034 7.89065 14.2643 8.1543 14.196C6.70899 13.903 5.62497 12.6335 5.62497 11.1003V11.0612C6.04488 11.2956 6.5332 11.4421 7.05074 11.4616C6.20113 10.8952 5.64451 9.92838 5.64451 8.83462C5.64451 8.24869 5.80073 7.71158 6.07419 7.24283C7.62693 9.15689 9.96093 10.4069 12.5781 10.5436C12.5293 10.3092 12.5 10.0651 12.5 9.82097C12.5 8.08267 13.9062 6.66667 15.6543 6.66667C16.5625 6.66667 17.3828 7.04753 17.959 7.66277C18.6718 7.52605 19.3554 7.26237 19.9609 6.90105C19.7265 7.63349 19.2285 8.24872 18.5742 8.63932C19.209 8.57099 19.8242 8.39517 20.3906 8.15106C19.961 8.77603 19.4238 9.33265 18.8086 9.78189Z" fill="#FF9A3D"/>
</svg>
