<svg width="36" height="32" viewBox="0 0 36 32" fill="none" xmlns="http://www.w3.org/2000/svg">
<path d="M34.2077 0.466637H1.74087C0.779299 0.466637 0 1.24602 0 2.2075V22.5756C0 23.5371 0.779299 24.3165 1.74087 24.3165H13.8832V28.2613H9.15827C8.27034 28.2613 7.54796 28.9837 7.54796 29.8716C7.54796 30.7595 8.27034 31.4819 9.15827 31.4819H26.7903C27.6782 31.4819 28.4006 30.7595 28.4006 29.8716C28.4006 28.9837 27.6782 28.2613 26.7903 28.2613H22.0653V24.3165H34.2077C35.1693 24.3165 35.9486 23.5371 35.9486 22.5756V2.2075C35.9486 1.24602 35.1693 0.466637 34.2077 0.466637ZM33.3373 21.7052H2.6113V3.07794H33.3373V21.7052Z" fill="#515151"/>
</svg>
